# xmcd
#
# Track frame offsets: 
#        150
#        14302
#        30767
#        48385
#        72687
#        91917
#        116294
#        130614
#        147352
#        160713
#        179704
#
# Disc length: 2664 seconds
#
# Revision: 0
# Processed by: cddbd v1.5.2PL0 Copyright (c) Steve Scherf et al.
# Submitted via: ExactAudioCopy v0.99pb4
#
DISCID=8b0a660b
DTITLE=the delta saints - the delta saints
DYEAR=2011
DGENRE=Blues
TTITLE0=bird called angola
TTITLE1=good in white
TTITLE2=company of thieves
TTITLE3=steppin'
TTITLE4=momma
TTITLE5=pray on
TTITLE6=voodoo walk
TTITLE7=callin' me home
TTITLE8=swamp groove
TTITLE9=3,000 miles
TTITLE10=train song
EXTD=
EXTT0=
EXTT1=
EXTT2=
EXTT3=
EXTT4=
EXTT5=
EXTT6=
EXTT7=
EXTT8=
EXTT9=
EXTT10=
PLAYORDER=
